<?xml version="1.0" encoding="UTF-8" standalone="no"?>
<!-- Created on 4 July 2019 by Mike Taves in Vim -->
<svg
	xmlns:svg="http://www.w3.org/2000/svg"
	xmlns="http://www.w3.org/2000/svg"
	version="1.1"
	width="51"
	height="51">
	<g id="background">
		<rect width="51" height="51" fill="white" />
	</g>
	<g id="grid" transform="translate(0.5,0.5)" style="stroke:#ddd;stroke-width:1">
		<line x1="0" y1="0" x2="50" y2="0"/>
		<line x1="0" y1="10" x2="50" y2="10"/>
		<line x1="0" y1="20" x2="50" y2="20"/>
		<line x1="0" y1="30" x2="50" y2="30"/>
		<line x1="0" y1="40" x2="50" y2="40"/>
		<line x1="0" y1="50" x2="50" y2="50"/>
		<line x1="0" y1="0" x2="0" y2="50"/>
		<line x1="10" y1="0" x2="10" y2="50"/>
		<line x1="20" y1="0" x2="20" y2="50"/>
		<line x1="30" y1="0" x2="30" y2="50"/>
		<line x1="40" y1="0" x2="40" y2="50"/>
		<line x1="50" y1="0" x2="50" y2="50"/>
	</g>
	<g id="polygon" transform="translate(0.5,50.5)" style="stroke:blue;stroke-width:1">
	    <path id="part 2" d="M 10 -10 L 20 -20 10 -40 M" style="fill:none" />
		<path id="part 3" d="M 40 -40 L 20 -45 45 -30 Z" style="fill:blue;fill-opacity:0.2" fill-rule="evenodd" />
	</g>
	<g id="points" transform="translate(-1.5,48.5)" style="fill:white;stroke:blue;stroke-width:1">
		<rect id="part 1, coord 1" width="4" height="4" transform="translate(40,-10)"/>
		<rect id="part 2, coord 1" width="4" height="4" transform="translate(10,-10)" style="fill:blue" />
		<rect id="part 2, coord 2" width="4" height="4" transform="translate(20,-20)"/>
		<rect id="part 2, coord 3" width="4" height="4" transform="translate(10,-40)"/>
		<rect id="part 3, coord 1/4" width="4" height="4" transform="translate(40,-40)" style="fill:blue"/>
		<rect id="part 3, coord 2" width="4" height="4" transform="translate(20,-45)"/>
		<rect id="part 3, coord 3" width="4" height="4" transform="translate(45,-30)"/>
	</g>
</svg>
